<?xml version="1.0" encoding="iso-8859-1"?>
<!-- Generator: Adobe Illustrator 18.1.1, SVG Export Plug-In . SVG Version: 6.00 Build 0)  -->
<svg version="1.1" id="Capa_1" xmlns="http://www.w3.org/2000/svg" xmlns:xlink="http://www.w3.org/1999/xlink" x="0px" y="0px"
	 viewBox="0 0 22.319 22.319" style="enable-background:new 0 0 22.319 22.319;" xml:space="preserve">
<g>
	<g>
		<path style="fill:#010002;" d="M8.284,3.597c2.841,0,5.146,2.304,5.146,5.145s-2.305,5.145-5.146,5.145S3.14,11.581,3.14,8.742
			C3.14,5.902,5.443,3.597,8.284,3.597L8.284,3.597z M8.284,0.456C3.71,0.456,0,4.166,0,8.742c0,4.574,3.71,8.283,8.284,8.283
			c2.041,0,3.907-0.737,5.353-1.961l6.411,6.41c0.519,0.519,1.364,0.519,1.882,0l0,0c0.519-0.518,0.519-1.365,0-1.882l-6.559-6.559
			c0.76-1.252,1.197-2.721,1.197-4.292C16.568,4.166,12.859,0.456,8.284,0.456z"/>
	</g>
</g>
<g>
</g>
<g>
</g>
<g>
</g>
<g>
</g>
<g>
</g>
<g>
</g>
<g>
</g>
<g>
</g>
<g>
</g>
<g>
</g>
<g>
</g>
<g>
</g>
<g>
</g>
<g>
</g>
<g>
</g>
</svg>
